<svg width="1024" height="1024" xmlns="http://www.w3.org/2000/svg" p-id="3769" version="1.1" class="icon" t="1571410570281">
 <defs>
  <style type="text/css"/>
 </defs>
 <g>
  <title>background</title>
  <rect fill="none" id="canvas_background" height="1242" width="2302" y="-1" x="-1"/>
 </g>
 <g>
  <title>Layer 1</title>
  <path id="svg_1" p-id="3770" fill="#68C205" d="m311.5,342l-3.5,-86l58,74.613l116.707,63.494l9.026,-126.237c0.76,-10.632 9.607,-18.87 20.267,-18.87s19.507,8.238 20.267,18.87l9.082,127.022l118.151,-64.28l58,-74.612l-3.5,86l-109.265,56.54c-24.685,2.82 -49.532,5.045 -73.735,5.045c-37.463,0 -78.727,-5.33 -119.708,-9.947l-99.792,-51.638z"/>
  <path id="svg_2" p-id="3771" fill="#FF3D00" d="m512,895.585c-194.404,0 -352,-106.362 -352,-343.459c0,-237.096 217.437,-147.541 371,-147.541s333,-89.555 333,147.541c0,237.097 -157.596,343.459 -352,343.459zm182,-442.873c14.95,0.332 30.04,5.977 43.778,17.452c36.536,30.517 51.37,92.113 37.513,145.836c3.444,-5.129 6.556,-10.834 9.26,-17.09c20.786,-48.087 9.593,-110.492 -25,-139.386c-20.62,-17.222 -44.899,-18.651 -65.551,-6.812z"/>
  <path stroke="null" id="svg_3" p-id="3772" fill="#E03200" d="m511,414.56c-30.345,0.67 -60.972,12.059 -88.857,35.21c-74.157,61.568 -104.264,185.842 -76.14,294.23c-6.99,-10.347 -13.307,-21.858 -18.796,-34.48c-42.189,-97.017 -19.47,-222.923 50.745,-281.217c41.851,-34.747 91.13,-37.63 133.048,-13.744l0,0.001zm30,-1.001c41.918,-23.887 91.197,-21.004 133.048,13.743c70.215,58.294 92.934,184.2 50.745,281.218c-5.489,12.621 -11.805,24.132 -18.796,34.479c28.124,-108.388 -1.983,-232.662 -76.14,-294.23c-27.885,-23.151 -58.512,-34.54 -88.857,-35.21z"/>
  <path id="svg_4" p-id="3773" fill="#162B3F" d="m273.5,829.162a292.676,292.676 0 0 1 -14.865,-12.272c-68.595,-60.55 -105.635,-150.618 -105.635,-266.264c0,-88.065 29.359,-138.532 86.081,-159.583c23.658,-8.78 51.713,-12.397 85.914,-12.016c15.494,0.173 30.403,0.99 49.49,2.716l-63.932,-33.082a7.5,7.5 0 0 1 -4.047,-6.356l-3.5,-86c-0.297,-7.29 8.937,-10.669 13.415,-4.908l57.04,73.376l102.69,55.869l8.1,-113.307c1.042,-14.557 13.156,-25.835 27.749,-25.835s26.708,11.278 27.748,25.835l8.25,115.401l106.542,-57.963l57.039,-73.376c4.478,-5.761 13.712,-2.383 13.415,4.908l-3.5,86a7.5,7.5 0 0 1 -4.047,6.356l-71.202,36.844c36.644,-4.454 52.94,-5.934 73.441,-6.41c31.125,-0.72 56.15,2.596 77.174,11.225c50.008,20.524 75.14,70.754 75.14,160.306c0,115.646 -37.04,205.715 -105.635,266.264c-4.895,4.32 -9.94,8.479 -15.128,12.474c50.243,13.866 80.763,32.126 80.763,52.136c0,43.354 -143.269,78.5 -320,78.5s-320,-35.146 -320,-78.5c0,-20.108 30.818,-38.45 81.5,-52.338zm244.477,-571.185c-6.009,2.925 -10.277,8.884 -10.788,15.934l-8.62,118.927l3.393,1.846c7.914,0.482 15.173,0.751 22.508,0.853l9.054,-4.926l-8.737,-122.206a12.816,12.816 0 0 0 -6.81,-10.428zm-186.71,36.96l1.698,40.376l100.326,52.729c11.888,1.352 22.208,2.488 31.387,3.434l-99.762,-54.275a7.5,7.5 0 0 1 -2.337,-1.985l-31.311,-40.28l-0.001,0.001zm189.395,583.064l82.763,0c59.974,-11.94 112.107,-36.248 153.013,-72.356c65.222,-57.571 100.562,-143.507 100.562,-255.019c0,-84.041 -22.269,-128.55 -65.835,-146.43c-18.819,-7.723 -41.899,-10.782 -71.131,-10.104c-22.41,0.519 -39.907,2.304 -86.935,8.143c-19.434,2.413 -30.062,3.666 -41.96,4.877c-22.518,2.292 -41.635,3.473 -59.639,3.473c-27.899,0 -51.266,-2.059 -106.05,-8.341l-5.991,-0.687c-25.314,-2.893 -49.008,7.178 -66.037,11.993c-40.963,26.96 -50.422,61.114 -61.422,137.16c0,184.174 95.092,289.462 228.662,327.29l0,0.001zm-106.453,-1070.383l103.08,-53.34l2.37,-58.256l-43.633,56.13a7.5,7.5 0 0 1 -2.337,1.986l-105.918,57.624c10.08,-0.567 20.79,-1.448 32.454,-2.635c4.645,-0.473 9.1,-0.953 13.984,-1.509z"/>
  <path id="svg_6" d="m546.757481,591.050873l0,0c0,-6.903559 6.491872,-12.5 14.5,-12.5l0,0c3.845637,0 7.533771,1.31696 10.253046,3.661165c2.719278,2.344206 4.246954,5.523628 4.246954,8.838836l0,0c0,6.903558 -6.491872,12.5 -14.5,12.5l0,0c-8.008127,0 -14.5,-5.596442 -14.5,-12.5zm7.25,0l0,0c0,3.451779 3.245938,6.25 7.25,6.25c4.004065,0 7.25,-2.798222 7.25,-6.25c0,-3.451779 -3.245937,-6.25 -7.25,-6.25l0,0c-4.004062,0 -7.25,2.798222 -7.25,6.25z" fill-opacity="null" stroke-opacity="null" stroke-width="null" stroke="null" fill="#FF3D00"/>
  <path id="svg_8" d="m536.901407,586.270299c-1.507895,7.579652 -5.359584,14.823602 -5.618947,22.639683c0.345097,4.525499 -3.074859,6.956356 -7.756681,6.870771c-5.035447,4.633699 0.621526,11.956757 6.319009,13.827242c5.814605,3.464885 13.028031,-0.406757 18.787924,2.701383c7.648181,5.307562 10.841122,14.717982 8.202506,22.967948c-2.623491,6.810367 10.806003,4.333497 5.754716,-1.110555c-3.901302,-5.321142 7.354237,-3.561868 4.472751,1.490064c-0.544487,4.055299 3.369529,5.367896 1.627662,9.29674c4.537854,2.309939 -0.380393,3.603308 -3.144372,4.039458c-6.472602,2.864385 1.170767,-5.131091 -3.956823,-7.495998c-4.695585,0.905947 -1.513844,7.886405 -3.125583,7.08017c-3.318037,-2.306538 -3.315589,-10.930031 -8.884381,-5.303304c-1.848226,-6.93312 1.524022,-14.153686 -1.07376,-21.046557c1.064157,-5.147687 -8.091058,-6.923265 -6.933088,-0.952812c0.461623,9.112174 -2.655265,18.206201 -0.866395,27.273479c2.463782,5.592622 9.354584,8.112029 13.679447,12.427698c3.551889,3.327625 8.156604,6.885398 13.684921,5.837743c6.270268,-0.24129 12.552097,-0.755376 18.794072,0.128387c7.851136,0.219829 13.844506,-5.289413 20.544655,-8.119382c7.876548,-5.552266 6.636408,-15.469772 5.851217,-23.369548c-0.962797,-4.877245 1.149943,-9.756709 0.756215,-14.588303c-5.678564,-6.168121 -10.337569,4.673586 -8.719948,9.331544c-0.000397,5.859357 1.267107,13.407211 -5.028996,17.224051c-5.195981,-0.116313 -10.141054,1.559164 -15.377113,0.683125c-4.248763,2.23987 -11.130714,2.182353 -12.533146,-3.149727c-0.559909,-4.735241 1.856989,-9.69966 -1.426905,-14.118955c2.885296,2.206071 7.919245,-1.905309 5.11378,3.040554c-3.421861,4.025924 2.897498,10.22961 5.276444,4.287281c0.789267,-3.986959 -3.414021,-9.278508 3.495298,-8.424328c1.40905,1.406318 -4.811788,11.243488 3.691703,8.757528c6.062528,-1.178905 -1.078572,-9.621419 7.131272,-9.650756c3.973268,-4.152588 2.903469,-11.936079 8.981142,-15.086357c6.776567,-4.071256 17.357079,-1.13197 22.193783,-8.02662c4.122617,-3.528245 2.18253,-13.307379 -4.92749,-10.067076c-8.885231,0.768942 -1.833561,-10.683417 -2.081473,-14.974743c2.093513,-3.737593 -2.542412,-11.605219 -0.946054,-12.439939c3.016363,4.096956 4.096705,8.888797 3.447998,13.676759c-0.055745,4.060349 -1.995415,15.064447 4.363233,8.280934c2.152572,-4.727512 1.526516,-10.082268 3.060115,-15.000698c2.957909,-10.61876 -2.338289,-21.243424 -8.242558,-30.237451c-5.028568,-4.841912 -11.412477,-8.701706 -17.407454,-12.501996c-10.083764,-3.366781 -21.217803,-3.969927 -31.867802,-3.12613c-9.42035,1.449569 -19.382337,2.977825 -26.886842,8.679791c-7.313784,3.825699 -14.318269,8.906815 -17.209708,16.257858c-2.519767,5.922003 -6.9322,11.952832 -4.926791,18.531324c1.917906,5.483907 0.90069,11.179142 1.211221,16.784255c3.269458,6.406089 6.356227,-3.278036 6.050257,-6.481222c0.180998,-6.074275 3.790949,-11.45089 6.450969,-16.843301l-0.000005,-0.000009zm60.051082,13.031553c6.723416,0.427699 15.236281,3.751483 15.419763,10.680915c1.022331,6.953868 -5.307012,13.694393 -13.418231,13.012459c-7.367587,-0.537247 -12.079581,-6.186914 -11.590354,-12.538743c-2.466647,-4.554331 1.37189,-9.432077 6.523561,-10.47904c0.999012,-0.298218 2.025884,-0.521439 3.065261,-0.675596l0,0.000005zm-45.371746,0.59229c7.79966,-1.231413 16.673686,3.063989 16.699729,10.728392c0.732546,7.40945 -8.128703,8.861108 -14.17346,10.717286c-4.182694,2.397549 -8.527525,0.165254 -12.003017,-2.250355c-4.509279,-4.190024 -3.183896,-12.633553 1.577444,-16.458329c2.308863,-1.516941 5.167046,-2.113258 7.899303,-2.736994zm26.689284,19.546768c3.775908,4.607215 8.308913,11.632912 3.425848,16.861931c-4.334826,3.086234 -4.881332,-4.389837 -9.431148,-0.868918c-4.268256,-3.318512 -0.3316,-10.071352 2.663255,-13.442553c0.987087,-0.97078 2.116649,-1.825436 3.342045,-2.55046z" stroke-width="null" fill="#559E84"/>
  <path id="svg_9" d="m356.724373,851.765245l-12.197802,3.469467c-1.117644,-3.054078 -2.800388,-5.701377 -4.836843,-7.808454l6.450519,-11.708376c0.567194,-1.033092 0.217668,-2.350284 -0.795327,-2.937855c-1.00253,-0.583267 -2.281332,-0.219532 -2.846433,0.811408l-6.119831,11.110044c-1.264151,-0.824321 -2.595277,-1.482918 -3.976634,-1.928438c-0.870674,-3.092819 -3.457579,-5.189135 -6.400288,-5.514129c-0.002093,-0.008609 -0.004186,-0.017218 -0.006279,-0.025827c-0.127671,-0.520851 -0.194646,-0.990047 -0.205111,-1.398979c-0.010465,-0.40678 0.025116,-0.755449 0.096276,-1.03094c0.07744,-0.279796 0.165344,-0.505785 0.261621,-0.682271c0.305573,-0.559592 0.711608,-0.925478 1.207641,-1.095508c0.048138,0.604789 0.297201,1.037397 0.736724,1.293517c0.32441,0.1894 0.703236,0.247512 1.142759,0.185096c0.441616,-0.066721 0.786955,-0.327146 1.038111,-0.781276c0.219761,-0.400323 0.265807,-0.837235 0.13395,-1.306431c-0.13395,-0.471348 -0.424872,-0.835083 -0.866488,-1.091203c-0.322317,-0.187248 -0.657191,-0.281948 -1.008809,-0.277643c-0.349525,0.002152 -0.6844,0.073177 -1.006716,0.208771c-0.320224,0.135593 -0.619518,0.344364 -0.897882,0.622007c-0.276271,0.277643 -0.504405,0.583267 -0.690679,0.916869c-0.276271,0.503632 -0.452081,1.067528 -0.523241,1.685231c-0.069068,0.615551 -0.07744,1.216035 -0.018837,1.807911c0.03558,0.344364 0.127671,0.647835 0.196739,0.966371c-0.784862,-0.045198 -1.586468,0.004305 -2.385981,0.232446c-1.008809,0.286253 -1.910877,0.774819 -2.678996,1.405436c-0.108834,-0.370191 -0.205111,-0.740383 -0.376734,-1.114878c-0.242784,-0.535916 -0.55045,-1.046006 -0.916719,-1.541029c-0.372548,-0.492871 -0.803699,-0.882433 -1.293453,-1.168685c-0.322317,-0.185096 -0.671842,-0.324994 -1.048576,-0.417541c-0.376734,-0.092548 -0.736724,-0.111918 -1.07997,-0.058111s-0.665563,0.172182 -0.969043,0.352973c-0.305573,0.180791 -0.544171,0.441216 -0.728352,0.768362c-0.249063,0.45413 -0.313945,0.921174 -0.196739,1.392522c0.121392,0.475653 0.378827,0.826474 0.768118,1.054615c0.439523,0.256121 0.868581,0.297014 1.278802,0.120527c0.410221,-0.176487 0.705329,-0.428303 0.88951,-0.764058c0.249063,-0.451978 0.24697,-0.953458 -0.014651,-1.495831c0.510684,-0.118375 1.040204,-0.017218 1.584375,0.303471c0.16953,0.096852 0.357897,0.247512 0.565101,0.447673c0.203018,0.198009 0.403942,0.477805 0.598588,0.835083c0.196739,0.357278 0.374641,0.792037 0.525334,1.308583c0.027209,0.0947 0.048138,0.210923 0.073254,0.314232c-1.906691,1.782084 -2.840154,4.49395 -2.298076,7.225187c-1.218106,1.256929 -2.243659,2.733389 -3.049451,4.37988l-10.799702,-6.297557c-1.004623,-0.583267 -2.285518,-0.219532 -2.854805,0.811408c-0.567194,1.037397 -0.213482,2.354589 0.791141,2.94216l11.387825,6.633312c-0.692772,2.884049 -0.809978,6.041436 -0.244877,9.248326l-12.197802,3.47162c-1.117644,0.316384 -1.770649,1.50444 -1.46089,2.649451c0.307666,1.140706 1.458797,1.814368 2.57644,1.493679l12.304544,-3.501752c1.052762,2.274955 2.852712,4.907187 4.962421,7.410283l-6.684932,12.136679c-0.569287,1.035244 -0.217668,2.350284 0.791141,2.933551c0.500219,0.294862 1.071598,0.348669 1.586468,0.202314c0.519055,-0.146355 0.981601,-0.492871 1.264151,-1.013722l6.059135,-10.995973c5.651007,5.583001 11.896415,8.87383 12.093154,2.266346c3.344559,5.509824 7.222824,-0.727469 9.42253,-8.557446l10.889699,6.342755c0.502312,0.297014 1.075784,0.348669 1.59484,0.202314c0.514869,-0.144202 0.977415,-0.492871 1.262058,-1.013722c0.569287,-1.03094 0.217668,-2.348132 -0.789048,-2.931399l-11.931996,-6.949696c0.609053,-3.239174 0.883231,-6.420236 0.667656,-8.906114l12.319194,-3.501752c1.109272,-0.316384 1.772742,-1.500136 1.456704,-2.645146c-0.309759,-1.14501 -1.465076,-1.81652 -2.578533,-1.500136z" stroke-width="null" fill="#ffffff"/>
 </g>
</svg>