<svg width="1243" height="1024" xmlns="http://www.w3.org/2000/svg" p-id="8679" version="1.1" class="icon" t="1571412289381">
 <!-- Created with Method Draw - http://github.com/duopixel/Method-Draw/ -->

 <g>
  <title>background</title>
  <rect fill="none" id="canvas_background" height="1026" width="1245" y="-1" x="-1"/>
 </g>
 <g>
  <title>Layer 1</title>
  <path stroke="#559E84" id="svg_37" d="m673.084094,212.242408c-10.585801,-1.254698 -16.301469,-12.983406 -5.724085,-17.279827c11.026664,-4.236326 17.584675,10.844838 5.540085,12.318918c-6.59526,1.842291 8.562886,4.927445 11.388096,1.829647c8.827784,-3.185954 7.464109,-11.478068 5.34019,-17.317956c-0.737085,-4.473931 -1.658855,-9.263665 -9.229343,-6.720986c-18.264426,1.095704 -32.724367,-12.720142 -31.271939,-25.644817c0.493105,-12.190842 13.885401,-20.540551 23.802068,-29.006207c-3.255665,-11.075196 -4.238684,-23.870084 5.19918,-33.521272c8.69337,-7.845355 13.105916,6.511005 14.576437,11.382502c3.266403,11.387115 -3.24653,23.353162 -14.083937,31.380114c1.034809,3.807503 2.052974,7.617551 3.107544,11.422044c11.452403,-1.648672 22.38425,5.566903 23.008897,14.018589c1.769578,7.632001 -4.795528,14.839462 -13.762798,18.119478c-0.147452,6.553692 4.709234,13.351831 2.96416,20.119464c-1.675886,6.997128 -12.200109,10.428321 -20.854547,8.900309l-0.000005,0zm11.955923,-29.858624c3.24465,-4.541367 -2.640689,-12.561746 -2.96382,-18.391152c0.127085,-10.165239 -14.333987,1.969108 -10.033577,6.961018c1.274773,2.953834 12.339569,8.370704 2.175678,5.029905c-10.611372,-4.735449 -10.125346,-16.919516 -0.4296,-22.063994c8.134385,-1.343481 3.166211,-9.437137 1.633491,-12.095612c-9.990756,6.789024 -21.314847,15.337765 -19.591834,26.325853c1.297886,10.299085 16.355564,16.546846 29.209661,14.233987l0,-0.000004zm6.722208,-1.965845c9.52882,-4.561182 9.216098,-16.531676 -1.209122,-20.244361c-11.123766,-4.382657 -3.504695,7.099168 -3.300875,11.469558c1.543751,1.673041 0.669278,11.421656 4.509997,8.774803zm-11.743749,-54.870191c5.861431,-5.287027 12.561679,-12.919863 8.445227,-19.910014c-8.864757,-4.363155 -13.790971,7.433246 -14.008987,12.598631c-0.080649,3.349352 -0.742629,14.893996 5.563765,7.311382l0,0l-0.000005,0z" stroke-opacity="null" stroke-width="null" fill="#000000"/>
  <path stroke="#559E84" id="svg_43" d="m318.30636,744.565192c-22.68145,-3.158175 -0.526334,-51.993422 -9.08152,-74.610451c-0.086476,-33.292782 -9.058666,-66.07906 -6.139291,-99.194837c17.8495,-58.384421 2.975219,-122.148749 -0.938664,-182.288097c-1.769428,-13.278036 -1.717413,-47.383834 -6.115914,-17.062088c-12.180941,51.124079 -0.282121,114.315914 -10.700426,166.093326c-17.412443,28.827803 -30.565018,-16.908568 -13.942973,-34.446345c19.419495,-42.110669 14.725955,-98.831137 15.378971,-151.337531c-0.835884,-33.198699 8.83257,-74.89009 37.44626,-75.83661c24.479314,-2.550314 47.659226,13.518782 72.354619,11.530882c72.025139,1.545996 144.760488,2.408427 215.874291,-15.67125c35.496463,-11.268566 70.835612,8.625224 106.387676,0.556807c19.978638,2.972341 30.548049,-9.896078 21.742726,-34.054412c14.881435,-14.142382 26.331792,26.819332 32.941453,-9.665021c23.965696,-22.751977 27.305925,44.416129 53.847066,25.446344c32.01474,5.714985 -13.911051,45.164073 12.894113,64.910201c16.20637,17.225102 41.023911,59.892356 8.783276,72.189754c-27.719282,-2.681792 -55.501763,-0.177033 -83.237933,1.671949c-12.837282,29.528802 -39.540392,51.677305 -36.614608,90.371064c-2.217428,46.160174 -25.690626,91.669874 -57.822737,106.006002c-13.731932,-3.744825 -19.722555,2.371699 -18.006854,21.746548c-7.094762,25.317338 -8.345292,52.0211 -7.503605,78.952254c-2.100017,14.846935 2.363235,26.394141 8.709839,37.829996c-7.463863,17.814168 -50.227698,7.262286 -34.025802,-26.439253c4.143283,-44.203145 -0.731894,-88.589792 -4.364482,-132.538894c-17.042334,-16.699276 -37.70325,-10.585196 -54.952092,2.833868c-38.052521,19.225216 -82.098304,37.428486 -121.128666,12.75457c-21.759815,-8.37132 -54.580814,-14.598167 -70.753912,10.685414c-7.277227,38.130567 -5.331803,79.081205 -11.53514,117.780045c-0.104352,20.232561 13.86748,37.603492 -9.802955,31.956911c-9.892091,0.313091 -19.810905,0.742114 -29.692779,-0.171148l0.00006,0zm20.19762,-43.059909c3.893044,-18.120541 -5.615032,-64.157594 -6.429997,-21.217891c-3.238396,13.623719 0.880079,79.05783 5.718155,35.618952c0.306063,-4.793312 0.523332,-9.59659 0.711842,-14.401062z" stroke-opacity="null" stroke-width="null" fill="#0d0f0d"/>
  <path id="svg_44" d="m763.986234,188.766259c-4.592579,-0.483395 -8.059613,-2.824463 -6.909737,-5.25851c1.626273,-3.414877 7.787652,-5.777096 13.953905,-6.899772c4.107376,-0.705315 8.768348,-0.598696 12.62503,0.450029c0.34438,-13.043386 0.147728,-26.090061 0.200024,-39.134922c1.392106,-0.000176 3.178503,-0.23256 2.800253,0.809859c0.19425,2.342488 2.420648,4.486913 5.842175,5.997986c7.633048,3.677127 16.219452,7.670029 17.97286,13.274291c0.49775,2.364338 -0.035722,4.747141 -1.051534,7.056001c3.008251,2.903134 2.826982,6.420449 1.605498,9.569152c-0.792071,1.662661 -2.084013,3.264322 -3.726301,4.747507c-3.877722,0.933363 0.459619,-1.525569 0.405219,-2.411393c2.09744,-2.661133 2.338053,-5.625406 1.384062,-8.428551c-2.0782,-4.10062 -9.934943,-6.104195 -16.25301,-8.248128c-2.286032,-0.462584 -7.172549,-3.252529 -6.203596,-0.518664c-0.21178,7.410641 -0.175618,14.822351 -0.24196,22.233561c-2.652062,3.435965 -8.736081,6.058251 -15.802692,6.715805c-2.164907,0.193448 -4.432129,0.264191 -6.600199,0.04575l0.000003,-0.000003zm44.061228,-28.019942c0.063003,-4.217423 -6.01232,-7.629698 -11.965331,-10.130718c-2.978833,-1.161243 -6.134207,-2.391497 -9.483788,-3.143077c0.206023,2.425201 2.352232,4.788193 4.921193,6.802149c4.841269,3.354081 12.150157,5.597604 16.205674,9.290586c0.486305,-0.916905 0.339619,-1.879237 0.322251,-2.81894z" stroke-opacity="null" stroke-width="null" stroke="#559E84" fill="#000000"/>
  <path id="svg_45" d="m567.004333,187.222248c-3.553668,-7.356558 -10.960232,-6.028908 -16.472808,-7.699974c-4.577224,-2.460031 -11.587432,-4.818326 -14.844178,2.218081c-4.346122,6.567312 -8.203582,13.64883 -11.636414,21.048686c-7.199173,10.227583 -15.940981,18.428525 -24.728267,26.166288c-7.402077,4.71507 -15.505594,8.392145 -21.49768,16.074665c-11.378621,9.464005 -25.239671,11.189411 -37.820667,16.737471c2.23002,1.005335 12.102898,-2.648573 5.46642,1.352586c-4.937389,2.108318 1.943212,4.067674 4.140333,2.661074c-1.734776,2.40513 -2.211973,2.601799 -0.078499,2.565613c-3.875924,2.808196 8.607082,-0.872162 1.73325,3.058036c-2.992681,1.134772 -10.351389,11.603005 -3.60381,6.886999c6.27345,-3.384968 12.960772,-5.087625 19.486771,-7.413999c-4.880983,6.505976 -11.836705,10.574558 -15.191386,18.823883c0.076247,2.129259 5.192666,-4.32641 7.356047,-5.383925c12.30236,-9.639865 25.192337,-18.574028 39.051144,-23.778732c1.892593,0.59109 2.262702,7.162159 5.951525,3.802777c0.323799,4.187056 8.426211,-6.567868 6.310241,1.820172c3.509109,-7.182219 -0.006298,7.797314 3.241818,10.065106c1.657637,2.838807 8.46494,6.757319 2.915904,7.73011c-2.452594,4.757883 3.438369,-1.908587 4.724737,2.548787c4.807282,2.263809 1.305541,4.584756 -2.174204,3.213968c-2.666877,-0.461736 -3.217117,4.082257 -0.52148,1.26265c3.218935,2.861279 8.331199,1.833593 12.435876,3.063699c4.101961,0.441114 9.074221,-5.445663 10.628886,-4.018745c-3.780908,-3.517804 -9.254152,0.777478 -13.403919,-1.937847c-0.875215,-3.650509 9.72718,1.306511 9.748635,-4.863961c4.966366,-0.599233 -4.176695,-1.430879 -5.950858,0.024842c-6.11072,0.423611 -9.245857,-6.941646 -13.547722,-11.123529c0.130282,-8.679635 5.040556,-16.136177 10.179684,-21.037695c6.704906,-5.234593 13.58402,-11.976772 15.482936,-22.42413c1.968615,-9.304288 3.064819,-18.891924 3.959777,-28.433204c1.210725,-6.156213 4.690815,-11.841341 10.028916,-11.382085c2.878824,-0.520168 5.768126,-0.952109 8.628987,-1.62768l0.000004,0.000011z" stroke-width="null" stroke="#000000" fill="#160404"/>
 </g>
</svg>